G04 #@! TF.GenerationSoftware,KiCad,Pcbnew,(5.1.9)-1*
G04 #@! TF.CreationDate,2023-05-17T23:02:02+09:00*
G04 #@! TF.ProjectId,MSX_SD,4d53585f-5344-42e6-9b69-6361645f7063,rev?*
G04 #@! TF.SameCoordinates,PX53920b0PY93c3260*
G04 #@! TF.FileFunction,Soldermask,Top*
G04 #@! TF.FilePolarity,Negative*
%FSLAX46Y46*%
G04 Gerber Fmt 4.6, Leading zero omitted, Abs format (unit mm)*
G04 Created by KiCad (PCBNEW (5.1.9)-1) date 2023-05-17 23:02:02*
%MOMM*%
%LPD*%
G01*
G04 APERTURE LIST*
%ADD10C,1.600000*%
%ADD11R,1.600000X2.400000*%
%ADD12O,1.600000X2.400000*%
%ADD13C,3.200000*%
%ADD14R,1.600000X1.600000*%
%ADD15R,1.700000X1.700000*%
%ADD16O,1.700000X1.700000*%
%ADD17O,1.600000X1.600000*%
%ADD18R,1.780000X10.000000*%
G04 APERTURE END LIST*
D10*
X63373000Y63755000D03*
X63373000Y61255000D03*
D11*
X11303000Y54230000D03*
D12*
X59563000Y69470000D03*
X13843000Y54230000D03*
X57023000Y69470000D03*
X16383000Y54230000D03*
X54483000Y69470000D03*
X18923000Y54230000D03*
X51943000Y69470000D03*
X21463000Y54230000D03*
X49403000Y69470000D03*
X24003000Y54230000D03*
X46863000Y69470000D03*
X26543000Y54230000D03*
X44323000Y69470000D03*
X29083000Y54230000D03*
X41783000Y69470000D03*
X31623000Y54230000D03*
X39243000Y69470000D03*
X34163000Y54230000D03*
X36703000Y69470000D03*
X36703000Y54230000D03*
X34163000Y69470000D03*
X39243000Y54230000D03*
X31623000Y69470000D03*
X41783000Y54230000D03*
X29083000Y69470000D03*
X44323000Y54230000D03*
X26543000Y69470000D03*
X46863000Y54230000D03*
X24003000Y69470000D03*
X49403000Y54230000D03*
X21463000Y69470000D03*
X51943000Y54230000D03*
X18923000Y69470000D03*
X54483000Y54230000D03*
X16383000Y69470000D03*
X57023000Y54230000D03*
X13843000Y69470000D03*
X59563000Y54230000D03*
X11303000Y69470000D03*
D10*
X62712000Y6722000D03*
X65212000Y6722000D03*
D13*
X5000000Y83000000D03*
X74000000Y83000000D03*
X74000000Y5000000D03*
X5000000Y5000000D03*
D14*
X67438000Y82381000D03*
D10*
X64938000Y82381000D03*
X40793000Y79144000D03*
X40793000Y81644000D03*
D15*
X49810000Y30480000D03*
D16*
X47270000Y30480000D03*
X44730000Y30480000D03*
X42190000Y30480000D03*
X39650000Y30480000D03*
X37110000Y30480000D03*
X34570000Y30480000D03*
X32030000Y30480000D03*
X29490000Y30480000D03*
X29490000Y2540000D03*
X29490000Y5080000D03*
X49810000Y2540000D03*
X49810000Y5080000D03*
D14*
X25146000Y9418000D03*
D17*
X25146000Y11958000D03*
X25146000Y14498000D03*
X9906000Y37358000D03*
X25146000Y17038000D03*
X9906000Y34818000D03*
X25146000Y19578000D03*
X9906000Y32278000D03*
X25146000Y22118000D03*
X9906000Y29738000D03*
X25146000Y24658000D03*
X9906000Y27198000D03*
X25146000Y27198000D03*
X9906000Y24658000D03*
X25146000Y29738000D03*
X9906000Y22118000D03*
X25146000Y32278000D03*
X9906000Y19578000D03*
X25146000Y34818000D03*
X9906000Y17038000D03*
X25146000Y37358000D03*
X9906000Y14498000D03*
X9906000Y11958000D03*
X9906000Y9418000D03*
X12446000Y18308000D03*
X12446000Y20848000D03*
X12446000Y28468000D03*
X12446000Y31008000D03*
D15*
X46000000Y38100000D03*
D16*
X43460000Y38100000D03*
X40920000Y38100000D03*
X38380000Y38100000D03*
X35840000Y38100000D03*
X33300000Y38100000D03*
D14*
X71882000Y13081000D03*
D17*
X56642000Y46101000D03*
X71882000Y15621000D03*
X56642000Y43561000D03*
X71882000Y18161000D03*
X56642000Y41021000D03*
X71882000Y20701000D03*
X56642000Y38481000D03*
X71882000Y23241000D03*
X56642000Y35941000D03*
X71882000Y25781000D03*
X56642000Y33401000D03*
X71882000Y28321000D03*
X56642000Y30861000D03*
X71882000Y30861000D03*
X56642000Y28321000D03*
X71882000Y33401000D03*
X56642000Y25781000D03*
X71882000Y35941000D03*
X56642000Y23241000D03*
X71882000Y38481000D03*
X56642000Y20701000D03*
X71882000Y41021000D03*
X56642000Y18161000D03*
X71882000Y43561000D03*
X56642000Y15621000D03*
X71882000Y46101000D03*
X56642000Y13081000D03*
D10*
X10287000Y79121000D03*
X10287000Y81621000D03*
D18*
X9000000Y94615000D03*
X11540000Y94615000D03*
X14080000Y94615000D03*
X16620000Y94615000D03*
X19160000Y94615000D03*
X21700000Y94615000D03*
X24240000Y94615000D03*
X26780000Y94615000D03*
X29320000Y94615000D03*
X31860000Y94615000D03*
X34400000Y94615000D03*
X36940000Y94615000D03*
X39480000Y94615000D03*
X42020000Y94615000D03*
X44560000Y94615000D03*
X47100000Y94615000D03*
X49640000Y94615000D03*
X52180000Y94615000D03*
X54720000Y94615000D03*
X57260000Y94615000D03*
X59800000Y94615000D03*
X62340000Y94615000D03*
X64880000Y94615000D03*
X67420000Y94615000D03*
X69960000Y94615000D03*
D11*
X13843000Y76454000D03*
D12*
X31623000Y84074000D03*
X16383000Y76454000D03*
X29083000Y84074000D03*
X18923000Y76454000D03*
X26543000Y84074000D03*
X21463000Y76454000D03*
X24003000Y84074000D03*
X24003000Y76454000D03*
X21463000Y84074000D03*
X26543000Y76454000D03*
X18923000Y84074000D03*
X29083000Y76454000D03*
X16383000Y84074000D03*
X31623000Y76454000D03*
X13843000Y84074000D03*
D11*
X44323000Y76454000D03*
D12*
X59563000Y84074000D03*
X46863000Y76454000D03*
X57023000Y84074000D03*
X49403000Y76454000D03*
X54483000Y84074000D03*
X51943000Y76454000D03*
X51943000Y84074000D03*
X54483000Y76454000D03*
X49403000Y84074000D03*
X57023000Y76454000D03*
X46863000Y84074000D03*
X59563000Y76454000D03*
X44323000Y84074000D03*
D14*
X13945000Y44501000D03*
D17*
X21565000Y44501000D03*
M02*
