G04 #@! TF.GenerationSoftware,KiCad,Pcbnew,(5.1.9)-1*
G04 #@! TF.CreationDate,2023-05-17T23:02:02+09:00*
G04 #@! TF.ProjectId,MSX_SD,4d53585f-5344-42e6-9b69-6361645f7063,rev?*
G04 #@! TF.SameCoordinates,PX53920b0PY93c3260*
G04 #@! TF.FileFunction,Legend,Top*
G04 #@! TF.FilePolarity,Positive*
%FSLAX46Y46*%
G04 Gerber Fmt 4.6, Leading zero omitted, Abs format (unit mm)*
G04 Created by KiCad (PCBNEW (5.1.9)-1) date 2023-05-17 23:02:02*
%MOMM*%
%LPD*%
G01*
G04 APERTURE LIST*
%ADD10C,0.150000*%
%ADD11C,0.500000*%
%ADD12C,0.120000*%
G04 APERTURE END LIST*
D10*
X18050142Y42003720D02*
X17478714Y42003720D01*
X17764428Y42003720D02*
X17764428Y43003720D01*
X17669190Y42860862D01*
X17573952Y42765624D01*
X17478714Y42718005D01*
X18478714Y42003720D02*
X18478714Y43003720D01*
X19050142Y42003720D01*
X19050142Y43003720D01*
X19954904Y42670386D02*
X19954904Y42003720D01*
X19716809Y43051339D02*
X19478714Y42337053D01*
X20097761Y42337053D01*
X21002523Y42003720D02*
X20431095Y42003720D01*
X20716809Y42003720D02*
X20716809Y43003720D01*
X20621571Y42860862D01*
X20526333Y42765624D01*
X20431095Y42718005D01*
X21859666Y42670386D02*
X21859666Y42003720D01*
X21621571Y43051339D02*
X21383476Y42337053D01*
X22002523Y42337053D01*
X22526333Y42575148D02*
X22431095Y42622767D01*
X22383476Y42670386D01*
X22335857Y42765624D01*
X22335857Y42813243D01*
X22383476Y42908481D01*
X22431095Y42956100D01*
X22526333Y43003720D01*
X22716809Y43003720D01*
X22812047Y42956100D01*
X22859666Y42908481D01*
X22907285Y42813243D01*
X22907285Y42765624D01*
X22859666Y42670386D01*
X22812047Y42622767D01*
X22716809Y42575148D01*
X22526333Y42575148D01*
X22431095Y42527529D01*
X22383476Y42479910D01*
X22335857Y42384672D01*
X22335857Y42194196D01*
X22383476Y42098958D01*
X22431095Y42051339D01*
X22526333Y42003720D01*
X22716809Y42003720D01*
X22812047Y42051339D01*
X22859666Y42098958D01*
X22907285Y42194196D01*
X22907285Y42384672D01*
X22859666Y42479910D01*
X22812047Y42527529D01*
X22716809Y42575148D01*
X61555380Y77621143D02*
X61555380Y78287810D01*
X62555380Y77859239D01*
X61888714Y79097334D02*
X62555380Y79097334D01*
X61507761Y78859239D02*
X62222047Y78621143D01*
X62222047Y79240191D01*
X62555380Y80097334D02*
X62555380Y79621143D01*
X61555380Y79621143D01*
X62507761Y80383048D02*
X62555380Y80525905D01*
X62555380Y80764000D01*
X62507761Y80859239D01*
X62460142Y80906858D01*
X62364904Y80954477D01*
X62269666Y80954477D01*
X62174428Y80906858D01*
X62126809Y80859239D01*
X62079190Y80764000D01*
X62031571Y80573524D01*
X61983952Y80478286D01*
X61936333Y80430667D01*
X61841095Y80383048D01*
X61745857Y80383048D01*
X61650619Y80430667D01*
X61603000Y80478286D01*
X61555380Y80573524D01*
X61555380Y80811620D01*
X61603000Y80954477D01*
X61555380Y81573524D02*
X61555380Y81668762D01*
X61603000Y81764000D01*
X61650619Y81811620D01*
X61745857Y81859239D01*
X61936333Y81906858D01*
X62174428Y81906858D01*
X62364904Y81859239D01*
X62460142Y81811620D01*
X62507761Y81764000D01*
X62555380Y81668762D01*
X62555380Y81573524D01*
X62507761Y81478286D01*
X62460142Y81430667D01*
X62364904Y81383048D01*
X62174428Y81335429D01*
X61936333Y81335429D01*
X61745857Y81383048D01*
X61650619Y81430667D01*
X61603000Y81478286D01*
X61555380Y81573524D01*
X61650619Y82287810D02*
X61603000Y82335429D01*
X61555380Y82430667D01*
X61555380Y82668762D01*
X61603000Y82764000D01*
X61650619Y82811620D01*
X61745857Y82859239D01*
X61841095Y82859239D01*
X61983952Y82811620D01*
X62555380Y82240191D01*
X62555380Y82859239D01*
X9765380Y83222143D02*
X9765380Y83317381D01*
X9813000Y83412620D01*
X9860619Y83460239D01*
X9955857Y83507858D01*
X10146333Y83555477D01*
X10384428Y83555477D01*
X10574904Y83507858D01*
X10670142Y83460239D01*
X10717761Y83412620D01*
X10765380Y83317381D01*
X10765380Y83222143D01*
X10717761Y83126905D01*
X10670142Y83079286D01*
X10574904Y83031667D01*
X10384428Y82984048D01*
X10146333Y82984048D01*
X9955857Y83031667D01*
X9860619Y83079286D01*
X9813000Y83126905D01*
X9765380Y83222143D01*
X10670142Y83984048D02*
X10717761Y84031667D01*
X10765380Y83984048D01*
X10717761Y83936429D01*
X10670142Y83984048D01*
X10765380Y83984048D01*
X10765380Y84984048D02*
X10765380Y84412620D01*
X10765380Y84698334D02*
X9765380Y84698334D01*
X9908238Y84603096D01*
X10003476Y84507858D01*
X10051095Y84412620D01*
X10098714Y85841191D02*
X10765380Y85841191D01*
X10098714Y85412620D02*
X10622523Y85412620D01*
X10717761Y85460239D01*
X10765380Y85555477D01*
X10765380Y85698334D01*
X10717761Y85793572D01*
X10670142Y85841191D01*
X10241571Y86650715D02*
X10241571Y86317381D01*
X10765380Y86317381D02*
X9765380Y86317381D01*
X9765380Y86793572D01*
X33488380Y76890953D02*
X33488380Y77557620D01*
X34488380Y77129048D01*
X33821714Y78367143D02*
X34488380Y78367143D01*
X33440761Y78129048D02*
X34155047Y77890953D01*
X34155047Y78510000D01*
X34488380Y79367143D02*
X34488380Y78890953D01*
X33488380Y78890953D01*
X34440761Y79652858D02*
X34488380Y79795715D01*
X34488380Y80033810D01*
X34440761Y80129048D01*
X34393142Y80176667D01*
X34297904Y80224286D01*
X34202666Y80224286D01*
X34107428Y80176667D01*
X34059809Y80129048D01*
X34012190Y80033810D01*
X33964571Y79843334D01*
X33916952Y79748096D01*
X33869333Y79700477D01*
X33774095Y79652858D01*
X33678857Y79652858D01*
X33583619Y79700477D01*
X33536000Y79748096D01*
X33488380Y79843334D01*
X33488380Y80081429D01*
X33536000Y80224286D01*
X34488380Y81176667D02*
X34488380Y80605239D01*
X34488380Y80890953D02*
X33488380Y80890953D01*
X33631238Y80795715D01*
X33726476Y80700477D01*
X33774095Y80605239D01*
X33488380Y81510000D02*
X33488380Y82129048D01*
X33869333Y81795715D01*
X33869333Y81938572D01*
X33916952Y82033810D01*
X33964571Y82081429D01*
X34059809Y82129048D01*
X34297904Y82129048D01*
X34393142Y82081429D01*
X34440761Y82033810D01*
X34488380Y81938572D01*
X34488380Y81652858D01*
X34440761Y81557620D01*
X34393142Y81510000D01*
X33916952Y82700477D02*
X33869333Y82605239D01*
X33821714Y82557620D01*
X33726476Y82510000D01*
X33678857Y82510000D01*
X33583619Y82557620D01*
X33536000Y82605239D01*
X33488380Y82700477D01*
X33488380Y82890953D01*
X33536000Y82986191D01*
X33583619Y83033810D01*
X33678857Y83081429D01*
X33726476Y83081429D01*
X33821714Y83033810D01*
X33869333Y82986191D01*
X33916952Y82890953D01*
X33916952Y82700477D01*
X33964571Y82605239D01*
X34012190Y82557620D01*
X34107428Y82510000D01*
X34297904Y82510000D01*
X34393142Y82557620D01*
X34440761Y82605239D01*
X34488380Y82700477D01*
X34488380Y82890953D01*
X34440761Y82986191D01*
X34393142Y83033810D01*
X34297904Y83081429D01*
X34107428Y83081429D01*
X34012190Y83033810D01*
X33964571Y82986191D01*
X33916952Y82890953D01*
X40219380Y83701143D02*
X40219380Y83796381D01*
X40267000Y83891620D01*
X40314619Y83939239D01*
X40409857Y83986858D01*
X40600333Y84034477D01*
X40838428Y84034477D01*
X41028904Y83986858D01*
X41124142Y83939239D01*
X41171761Y83891620D01*
X41219380Y83796381D01*
X41219380Y83701143D01*
X41171761Y83605905D01*
X41124142Y83558286D01*
X41028904Y83510667D01*
X40838428Y83463048D01*
X40600333Y83463048D01*
X40409857Y83510667D01*
X40314619Y83558286D01*
X40267000Y83605905D01*
X40219380Y83701143D01*
X41124142Y84463048D02*
X41171761Y84510667D01*
X41219380Y84463048D01*
X41171761Y84415429D01*
X41124142Y84463048D01*
X41219380Y84463048D01*
X41219380Y85463048D02*
X41219380Y84891620D01*
X41219380Y85177334D02*
X40219380Y85177334D01*
X40362238Y85082096D01*
X40457476Y84986858D01*
X40505095Y84891620D01*
X40552714Y86320191D02*
X41219380Y86320191D01*
X40552714Y85891620D02*
X41076523Y85891620D01*
X41171761Y85939239D01*
X41219380Y86034477D01*
X41219380Y86177334D01*
X41171761Y86272572D01*
X41124142Y86320191D01*
X40695571Y87129715D02*
X40695571Y86796381D01*
X41219380Y86796381D02*
X40219380Y86796381D01*
X40219380Y87272572D01*
X28328952Y60961191D02*
X28281333Y60865953D01*
X28233714Y60818334D01*
X28138476Y60770715D01*
X28090857Y60770715D01*
X27995619Y60818334D01*
X27948000Y60865953D01*
X27900380Y60961191D01*
X27900380Y61151667D01*
X27948000Y61246905D01*
X27995619Y61294524D01*
X28090857Y61342143D01*
X28138476Y61342143D01*
X28233714Y61294524D01*
X28281333Y61246905D01*
X28328952Y61151667D01*
X28328952Y60961191D01*
X28376571Y60865953D01*
X28424190Y60818334D01*
X28519428Y60770715D01*
X28709904Y60770715D01*
X28805142Y60818334D01*
X28852761Y60865953D01*
X28900380Y60961191D01*
X28900380Y61151667D01*
X28852761Y61246905D01*
X28805142Y61294524D01*
X28709904Y61342143D01*
X28519428Y61342143D01*
X28424190Y61294524D01*
X28376571Y61246905D01*
X28328952Y61151667D01*
X27995619Y61723096D02*
X27948000Y61770715D01*
X27900380Y61865953D01*
X27900380Y62104048D01*
X27948000Y62199286D01*
X27995619Y62246905D01*
X28090857Y62294524D01*
X28186095Y62294524D01*
X28328952Y62246905D01*
X28900380Y61675477D01*
X28900380Y62294524D01*
X27900380Y63199286D02*
X27900380Y62723096D01*
X28376571Y62675477D01*
X28328952Y62723096D01*
X28281333Y62818334D01*
X28281333Y63056429D01*
X28328952Y63151667D01*
X28376571Y63199286D01*
X28471809Y63246905D01*
X28709904Y63246905D01*
X28805142Y63199286D01*
X28852761Y63151667D01*
X28900380Y63056429D01*
X28900380Y62818334D01*
X28852761Y62723096D01*
X28805142Y62675477D01*
X27900380Y64151667D02*
X27900380Y63675477D01*
X28376571Y63627858D01*
X28328952Y63675477D01*
X28281333Y63770715D01*
X28281333Y64008810D01*
X28328952Y64104048D01*
X28376571Y64151667D01*
X28471809Y64199286D01*
X28709904Y64199286D01*
X28805142Y64151667D01*
X28852761Y64104048D01*
X28900380Y64008810D01*
X28900380Y63770715D01*
X28852761Y63675477D01*
X28805142Y63627858D01*
X62825380Y56397143D02*
X62825380Y56492381D01*
X62873000Y56587620D01*
X62920619Y56635239D01*
X63015857Y56682858D01*
X63206333Y56730477D01*
X63444428Y56730477D01*
X63634904Y56682858D01*
X63730142Y56635239D01*
X63777761Y56587620D01*
X63825380Y56492381D01*
X63825380Y56397143D01*
X63777761Y56301905D01*
X63730142Y56254286D01*
X63634904Y56206667D01*
X63444428Y56159048D01*
X63206333Y56159048D01*
X63015857Y56206667D01*
X62920619Y56254286D01*
X62873000Y56301905D01*
X62825380Y56397143D01*
X63730142Y57159048D02*
X63777761Y57206667D01*
X63825380Y57159048D01*
X63777761Y57111429D01*
X63730142Y57159048D01*
X63825380Y57159048D01*
X63825380Y58159048D02*
X63825380Y57587620D01*
X63825380Y57873334D02*
X62825380Y57873334D01*
X62968238Y57778096D01*
X63063476Y57682858D01*
X63111095Y57587620D01*
X63158714Y59016191D02*
X63825380Y59016191D01*
X63158714Y58587620D02*
X63682523Y58587620D01*
X63777761Y58635239D01*
X63825380Y58730477D01*
X63825380Y58873334D01*
X63777761Y58968572D01*
X63730142Y59016191D01*
X63301571Y59825715D02*
X63301571Y59492381D01*
X63825380Y59492381D02*
X62825380Y59492381D01*
X62825380Y59968572D01*
X10595238Y39731834D02*
X11071428Y39731834D01*
X10500000Y39446120D02*
X10833333Y40446120D01*
X11166666Y39446120D01*
X11500000Y39446120D02*
X11500000Y40112786D01*
X11500000Y39922310D02*
X11547619Y40017548D01*
X11595238Y40065167D01*
X11690476Y40112786D01*
X11785714Y40112786D01*
X12547619Y39446120D02*
X12547619Y40446120D01*
X12547619Y39493739D02*
X12452380Y39446120D01*
X12261904Y39446120D01*
X12166666Y39493739D01*
X12119047Y39541358D01*
X12071428Y39636596D01*
X12071428Y39922310D01*
X12119047Y40017548D01*
X12166666Y40065167D01*
X12261904Y40112786D01*
X12452380Y40112786D01*
X12547619Y40065167D01*
X13452380Y40112786D02*
X13452380Y39446120D01*
X13023809Y40112786D02*
X13023809Y39588977D01*
X13071428Y39493739D01*
X13166666Y39446120D01*
X13309523Y39446120D01*
X13404761Y39493739D01*
X13452380Y39541358D01*
X13928571Y39446120D02*
X13928571Y40112786D01*
X13928571Y40446120D02*
X13880952Y40398500D01*
X13928571Y40350881D01*
X13976190Y40398500D01*
X13928571Y40446120D01*
X13928571Y40350881D01*
X14404761Y40112786D02*
X14404761Y39446120D01*
X14404761Y40017548D02*
X14452380Y40065167D01*
X14547619Y40112786D01*
X14690476Y40112786D01*
X14785714Y40065167D01*
X14833333Y39969929D01*
X14833333Y39446120D01*
X15452380Y39446120D02*
X15357142Y39493739D01*
X15309523Y39541358D01*
X15261904Y39636596D01*
X15261904Y39922310D01*
X15309523Y40017548D01*
X15357142Y40065167D01*
X15452380Y40112786D01*
X15595238Y40112786D01*
X15690476Y40065167D01*
X15738095Y40017548D01*
X15785714Y39922310D01*
X15785714Y39636596D01*
X15738095Y39541358D01*
X15690476Y39493739D01*
X15595238Y39446120D01*
X15452380Y39446120D01*
X16976190Y39446120D02*
X16976190Y40446120D01*
X17357142Y40446120D01*
X17452380Y40398500D01*
X17500000Y40350881D01*
X17547619Y40255643D01*
X17547619Y40112786D01*
X17500000Y40017548D01*
X17452380Y39969929D01*
X17357142Y39922310D01*
X16976190Y39922310D01*
X17976190Y39446120D02*
X17976190Y40112786D01*
X17976190Y39922310D02*
X18023809Y40017548D01*
X18071428Y40065167D01*
X18166666Y40112786D01*
X18261904Y40112786D01*
X18738095Y39446120D02*
X18642857Y39493739D01*
X18595238Y39541358D01*
X18547619Y39636596D01*
X18547619Y39922310D01*
X18595238Y40017548D01*
X18642857Y40065167D01*
X18738095Y40112786D01*
X18880952Y40112786D01*
X18976190Y40065167D01*
X19023809Y40017548D01*
X19071428Y39922310D01*
X19071428Y39636596D01*
X19023809Y39541358D01*
X18976190Y39493739D01*
X18880952Y39446120D01*
X18738095Y39446120D01*
X20261904Y39446120D02*
X20261904Y40446120D01*
X20595238Y39731834D01*
X20928571Y40446120D01*
X20928571Y39446120D01*
X21404761Y39446120D02*
X21404761Y40112786D01*
X21404761Y40446120D02*
X21357142Y40398500D01*
X21404761Y40350881D01*
X21452380Y40398500D01*
X21404761Y40446120D01*
X21404761Y40350881D01*
X21880952Y40112786D02*
X21880952Y39446120D01*
X21880952Y40017548D02*
X21928571Y40065167D01*
X22023809Y40112786D01*
X22166666Y40112786D01*
X22261904Y40065167D01*
X22309523Y39969929D01*
X22309523Y39446120D01*
X22785714Y39446120D02*
X22785714Y40112786D01*
X22785714Y40446120D02*
X22738095Y40398500D01*
X22785714Y40350881D01*
X22833333Y40398500D01*
X22785714Y40446120D01*
X22785714Y40350881D01*
X24500000Y40446120D02*
X24023809Y40446120D01*
X23976190Y39969929D01*
X24023809Y40017548D01*
X24119047Y40065167D01*
X24357142Y40065167D01*
X24452380Y40017548D01*
X24500000Y39969929D01*
X24547619Y39874691D01*
X24547619Y39636596D01*
X24500000Y39541358D01*
X24452380Y39493739D01*
X24357142Y39446120D01*
X24119047Y39446120D01*
X24023809Y39493739D01*
X23976190Y39541358D01*
X24833333Y40446120D02*
X25166666Y39446120D01*
X25500000Y40446120D01*
X57285142Y7431020D02*
X57380380Y7431020D01*
X57475619Y7383400D01*
X57523238Y7335781D01*
X57570857Y7240543D01*
X57618476Y7050067D01*
X57618476Y6811972D01*
X57570857Y6621496D01*
X57523238Y6526258D01*
X57475619Y6478639D01*
X57380380Y6431020D01*
X57285142Y6431020D01*
X57189904Y6478639D01*
X57142285Y6526258D01*
X57094666Y6621496D01*
X57047047Y6811972D01*
X57047047Y7050067D01*
X57094666Y7240543D01*
X57142285Y7335781D01*
X57189904Y7383400D01*
X57285142Y7431020D01*
X58047047Y6526258D02*
X58094666Y6478639D01*
X58047047Y6431020D01*
X57999428Y6478639D01*
X58047047Y6526258D01*
X58047047Y6431020D01*
X59047047Y6431020D02*
X58475619Y6431020D01*
X58761333Y6431020D02*
X58761333Y7431020D01*
X58666095Y7288162D01*
X58570857Y7192924D01*
X58475619Y7145305D01*
X59904190Y7097686D02*
X59904190Y6431020D01*
X59475619Y7097686D02*
X59475619Y6573877D01*
X59523238Y6478639D01*
X59618476Y6431020D01*
X59761333Y6431020D01*
X59856571Y6478639D01*
X59904190Y6526258D01*
X60713714Y6954829D02*
X60380380Y6954829D01*
X60380380Y6431020D02*
X60380380Y7431020D01*
X60856571Y7431020D01*
X63062123Y35707581D02*
X63109742Y35755200D01*
X63204980Y35802820D01*
X63443076Y35802820D01*
X63538314Y35755200D01*
X63585933Y35707581D01*
X63633552Y35612343D01*
X63633552Y35517105D01*
X63585933Y35374248D01*
X63014504Y34802820D01*
X63633552Y34802820D01*
X63966885Y35802820D02*
X64633552Y35802820D01*
X64204980Y34802820D01*
X64966885Y35707581D02*
X65014504Y35755200D01*
X65109742Y35802820D01*
X65347838Y35802820D01*
X65443076Y35755200D01*
X65490695Y35707581D01*
X65538314Y35612343D01*
X65538314Y35517105D01*
X65490695Y35374248D01*
X64919266Y34802820D01*
X65538314Y34802820D01*
X66443076Y35802820D02*
X65966885Y35802820D01*
X65919266Y35326629D01*
X65966885Y35374248D01*
X66062123Y35421867D01*
X66300219Y35421867D01*
X66395457Y35374248D01*
X66443076Y35326629D01*
X66490695Y35231391D01*
X66490695Y34993296D01*
X66443076Y34898058D01*
X66395457Y34850439D01*
X66300219Y34802820D01*
X66062123Y34802820D01*
X65966885Y34850439D01*
X65919266Y34898058D01*
X67347838Y35802820D02*
X67157361Y35802820D01*
X67062123Y35755200D01*
X67014504Y35707581D01*
X66919266Y35564724D01*
X66871647Y35374248D01*
X66871647Y34993296D01*
X66919266Y34898058D01*
X66966885Y34850439D01*
X67062123Y34802820D01*
X67252600Y34802820D01*
X67347838Y34850439D01*
X67395457Y34898058D01*
X67443076Y34993296D01*
X67443076Y35231391D01*
X67395457Y35326629D01*
X67347838Y35374248D01*
X67252600Y35421867D01*
X67062123Y35421867D01*
X66966885Y35374248D01*
X66919266Y35326629D01*
X66871647Y35231391D01*
X64760480Y85658620D02*
X64189052Y85658620D01*
X64474766Y85658620D02*
X64474766Y86658620D01*
X64379528Y86515762D01*
X64284290Y86420524D01*
X64189052Y86372905D01*
X65379528Y86658620D02*
X65474766Y86658620D01*
X65570004Y86611000D01*
X65617623Y86563381D01*
X65665242Y86468143D01*
X65712861Y86277667D01*
X65712861Y86039572D01*
X65665242Y85849096D01*
X65617623Y85753858D01*
X65570004Y85706239D01*
X65474766Y85658620D01*
X65379528Y85658620D01*
X65284290Y85706239D01*
X65236671Y85753858D01*
X65189052Y85849096D01*
X65141433Y86039572D01*
X65141433Y86277667D01*
X65189052Y86468143D01*
X65236671Y86563381D01*
X65284290Y86611000D01*
X65379528Y86658620D01*
X66331909Y86658620D02*
X66427147Y86658620D01*
X66522385Y86611000D01*
X66570004Y86563381D01*
X66617623Y86468143D01*
X66665242Y86277667D01*
X66665242Y86039572D01*
X66617623Y85849096D01*
X66570004Y85753858D01*
X66522385Y85706239D01*
X66427147Y85658620D01*
X66331909Y85658620D01*
X66236671Y85706239D01*
X66189052Y85753858D01*
X66141433Y85849096D01*
X66093814Y86039572D01*
X66093814Y86277667D01*
X66141433Y86468143D01*
X66189052Y86563381D01*
X66236671Y86611000D01*
X66331909Y86658620D01*
X67522385Y86325286D02*
X67522385Y85658620D01*
X67093814Y86325286D02*
X67093814Y85801477D01*
X67141433Y85706239D01*
X67236671Y85658620D01*
X67379528Y85658620D01*
X67474766Y85706239D01*
X67522385Y85753858D01*
X68331909Y86182429D02*
X67998576Y86182429D01*
X67998576Y85658620D02*
X67998576Y86658620D01*
X68474766Y86658620D01*
D11*
X71540857Y74166620D02*
X74540857Y74166620D01*
X72398000Y73499953D01*
X74540857Y72833286D01*
X71540857Y72833286D01*
X71683714Y71976143D02*
X71540857Y71690429D01*
X71540857Y71214239D01*
X71683714Y71023762D01*
X71826571Y70928524D01*
X72112285Y70833286D01*
X72398000Y70833286D01*
X72683714Y70928524D01*
X72826571Y71023762D01*
X72969428Y71214239D01*
X73112285Y71595191D01*
X73255142Y71785667D01*
X73398000Y71880905D01*
X73683714Y71976143D01*
X73969428Y71976143D01*
X74255142Y71880905D01*
X74398000Y71785667D01*
X74540857Y71595191D01*
X74540857Y71119000D01*
X74398000Y70833286D01*
X74540857Y70166620D02*
X71540857Y68833286D01*
X74540857Y68833286D02*
X71540857Y70166620D01*
X71255142Y68547572D02*
X71255142Y67023762D01*
X71683714Y66642810D02*
X71540857Y66357096D01*
X71540857Y65880905D01*
X71683714Y65690429D01*
X71826571Y65595191D01*
X72112285Y65499953D01*
X72398000Y65499953D01*
X72683714Y65595191D01*
X72826571Y65690429D01*
X72969428Y65880905D01*
X73112285Y66261858D01*
X73255142Y66452334D01*
X73398000Y66547572D01*
X73683714Y66642810D01*
X73969428Y66642810D01*
X74255142Y66547572D01*
X74398000Y66452334D01*
X74540857Y66261858D01*
X74540857Y65785667D01*
X74398000Y65499953D01*
X71540857Y64642810D02*
X74540857Y64642810D01*
X74540857Y64166620D01*
X74398000Y63880905D01*
X74112285Y63690429D01*
X73826571Y63595191D01*
X73255142Y63499953D01*
X72826571Y63499953D01*
X72255142Y63595191D01*
X71969428Y63690429D01*
X71683714Y63880905D01*
X71540857Y64166620D01*
X71540857Y64642810D01*
X71540857Y59976143D02*
X72969428Y60642810D01*
X71540857Y61119000D02*
X74540857Y61119000D01*
X74540857Y60357096D01*
X74398000Y60166620D01*
X74255142Y60071381D01*
X73969428Y59976143D01*
X73540857Y59976143D01*
X73255142Y60071381D01*
X73112285Y60166620D01*
X72969428Y60357096D01*
X72969428Y61119000D01*
X71683714Y58357096D02*
X71540857Y58547572D01*
X71540857Y58928524D01*
X71683714Y59119000D01*
X71969428Y59214239D01*
X73112285Y59214239D01*
X73398000Y59119000D01*
X73540857Y58928524D01*
X73540857Y58547572D01*
X73398000Y58357096D01*
X73112285Y58261858D01*
X72826571Y58261858D01*
X72540857Y59214239D01*
X73540857Y57595191D02*
X71540857Y57119000D01*
X73540857Y56642810D01*
X71540857Y54833286D02*
X71540857Y55976143D01*
X71540857Y55404715D02*
X74540857Y55404715D01*
X74112285Y55595191D01*
X73826571Y55785667D01*
X73683714Y55976143D01*
X71826571Y53976143D02*
X71683714Y53880905D01*
X71540857Y53976143D01*
X71683714Y54071381D01*
X71826571Y53976143D01*
X71540857Y53976143D01*
X74540857Y52166620D02*
X74540857Y52547572D01*
X74398000Y52738048D01*
X74255142Y52833286D01*
X73826571Y53023762D01*
X73255142Y53119000D01*
X72112285Y53119000D01*
X71826571Y53023762D01*
X71683714Y52928524D01*
X71540857Y52738048D01*
X71540857Y52357096D01*
X71683714Y52166620D01*
X71826571Y52071381D01*
X72112285Y51976143D01*
X72826571Y51976143D01*
X73112285Y52071381D01*
X73255142Y52166620D01*
X73398000Y52357096D01*
X73398000Y52738048D01*
X73255142Y52928524D01*
X73112285Y53023762D01*
X72826571Y53119000D01*
D12*
X62708000Y60385000D02*
X62003000Y60385000D01*
X64743000Y60385000D02*
X64038000Y60385000D01*
X62708000Y64625000D02*
X62003000Y64625000D01*
X64743000Y64625000D02*
X64038000Y64625000D01*
X62003000Y64625000D02*
X62003000Y60385000D01*
X64743000Y64625000D02*
X64743000Y60385000D01*
X9973000Y67910000D02*
X9973000Y62850000D01*
X60893000Y67910000D02*
X9973000Y67910000D01*
X60893000Y55790000D02*
X60893000Y67910000D01*
X9973000Y55790000D02*
X60893000Y55790000D01*
X9973000Y60850000D02*
X9973000Y55790000D01*
X9973000Y62850000D02*
G75*
G02*
X9973000Y60850000I0J-1000000D01*
G01*
X61842000Y8092000D02*
X66082000Y8092000D01*
X61842000Y5352000D02*
X66082000Y5352000D01*
X61842000Y8092000D02*
X61842000Y7387000D01*
X61842000Y6057000D02*
X61842000Y5352000D01*
X66082000Y8092000D02*
X66082000Y7387000D01*
X66082000Y6057000D02*
X66082000Y5352000D01*
X68808000Y82381000D02*
G75*
G03*
X68808000Y82381000I-2620000J0D01*
G01*
X66188000Y79801000D02*
X66188000Y84961000D01*
X66148000Y79801000D02*
X66148000Y84961000D01*
X66108000Y79802000D02*
X66108000Y84960000D01*
X66068000Y79803000D02*
X66068000Y84959000D01*
X66028000Y79805000D02*
X66028000Y84957000D01*
X65988000Y79808000D02*
X65988000Y84954000D01*
X65948000Y79812000D02*
X65948000Y81341000D01*
X65948000Y83421000D02*
X65948000Y84950000D01*
X65908000Y79816000D02*
X65908000Y81341000D01*
X65908000Y83421000D02*
X65908000Y84946000D01*
X65868000Y79820000D02*
X65868000Y81341000D01*
X65868000Y83421000D02*
X65868000Y84942000D01*
X65828000Y79825000D02*
X65828000Y81341000D01*
X65828000Y83421000D02*
X65828000Y84937000D01*
X65788000Y79831000D02*
X65788000Y81341000D01*
X65788000Y83421000D02*
X65788000Y84931000D01*
X65748000Y79838000D02*
X65748000Y81341000D01*
X65748000Y83421000D02*
X65748000Y84924000D01*
X65708000Y79845000D02*
X65708000Y81341000D01*
X65708000Y83421000D02*
X65708000Y84917000D01*
X65668000Y79853000D02*
X65668000Y81341000D01*
X65668000Y83421000D02*
X65668000Y84909000D01*
X65628000Y79861000D02*
X65628000Y81341000D01*
X65628000Y83421000D02*
X65628000Y84901000D01*
X65588000Y79870000D02*
X65588000Y81341000D01*
X65588000Y83421000D02*
X65588000Y84892000D01*
X65548000Y79880000D02*
X65548000Y81341000D01*
X65548000Y83421000D02*
X65548000Y84882000D01*
X65508000Y79890000D02*
X65508000Y81341000D01*
X65508000Y83421000D02*
X65508000Y84872000D01*
X65467000Y79901000D02*
X65467000Y81341000D01*
X65467000Y83421000D02*
X65467000Y84861000D01*
X65427000Y79913000D02*
X65427000Y81341000D01*
X65427000Y83421000D02*
X65427000Y84849000D01*
X65387000Y79926000D02*
X65387000Y81341000D01*
X65387000Y83421000D02*
X65387000Y84836000D01*
X65347000Y79939000D02*
X65347000Y81341000D01*
X65347000Y83421000D02*
X65347000Y84823000D01*
X65307000Y79953000D02*
X65307000Y81341000D01*
X65307000Y83421000D02*
X65307000Y84809000D01*
X65267000Y79967000D02*
X65267000Y81341000D01*
X65267000Y83421000D02*
X65267000Y84795000D01*
X65227000Y79983000D02*
X65227000Y81341000D01*
X65227000Y83421000D02*
X65227000Y84779000D01*
X65187000Y79999000D02*
X65187000Y81341000D01*
X65187000Y83421000D02*
X65187000Y84763000D01*
X65147000Y80016000D02*
X65147000Y81341000D01*
X65147000Y83421000D02*
X65147000Y84746000D01*
X65107000Y80033000D02*
X65107000Y81341000D01*
X65107000Y83421000D02*
X65107000Y84729000D01*
X65067000Y80052000D02*
X65067000Y81341000D01*
X65067000Y83421000D02*
X65067000Y84710000D01*
X65027000Y80071000D02*
X65027000Y81341000D01*
X65027000Y83421000D02*
X65027000Y84691000D01*
X64987000Y80091000D02*
X64987000Y81341000D01*
X64987000Y83421000D02*
X64987000Y84671000D01*
X64947000Y80113000D02*
X64947000Y81341000D01*
X64947000Y83421000D02*
X64947000Y84649000D01*
X64907000Y80134000D02*
X64907000Y81341000D01*
X64907000Y83421000D02*
X64907000Y84628000D01*
X64867000Y80157000D02*
X64867000Y81341000D01*
X64867000Y83421000D02*
X64867000Y84605000D01*
X64827000Y80181000D02*
X64827000Y81341000D01*
X64827000Y83421000D02*
X64827000Y84581000D01*
X64787000Y80206000D02*
X64787000Y81341000D01*
X64787000Y83421000D02*
X64787000Y84556000D01*
X64747000Y80232000D02*
X64747000Y81341000D01*
X64747000Y83421000D02*
X64747000Y84530000D01*
X64707000Y80259000D02*
X64707000Y81341000D01*
X64707000Y83421000D02*
X64707000Y84503000D01*
X64667000Y80286000D02*
X64667000Y81341000D01*
X64667000Y83421000D02*
X64667000Y84476000D01*
X64627000Y80316000D02*
X64627000Y81341000D01*
X64627000Y83421000D02*
X64627000Y84446000D01*
X64587000Y80346000D02*
X64587000Y81341000D01*
X64587000Y83421000D02*
X64587000Y84416000D01*
X64547000Y80377000D02*
X64547000Y81341000D01*
X64547000Y83421000D02*
X64547000Y84385000D01*
X64507000Y80410000D02*
X64507000Y81341000D01*
X64507000Y83421000D02*
X64507000Y84352000D01*
X64467000Y80444000D02*
X64467000Y81341000D01*
X64467000Y83421000D02*
X64467000Y84318000D01*
X64427000Y80480000D02*
X64427000Y81341000D01*
X64427000Y83421000D02*
X64427000Y84282000D01*
X64387000Y80517000D02*
X64387000Y81341000D01*
X64387000Y83421000D02*
X64387000Y84245000D01*
X64347000Y80555000D02*
X64347000Y81341000D01*
X64347000Y83421000D02*
X64347000Y84207000D01*
X64307000Y80596000D02*
X64307000Y81341000D01*
X64307000Y83421000D02*
X64307000Y84166000D01*
X64267000Y80638000D02*
X64267000Y81341000D01*
X64267000Y83421000D02*
X64267000Y84124000D01*
X64227000Y80682000D02*
X64227000Y81341000D01*
X64227000Y83421000D02*
X64227000Y84080000D01*
X64187000Y80728000D02*
X64187000Y81341000D01*
X64187000Y83421000D02*
X64187000Y84034000D01*
X64147000Y80776000D02*
X64147000Y81341000D01*
X64147000Y83421000D02*
X64147000Y83986000D01*
X64107000Y80827000D02*
X64107000Y81341000D01*
X64107000Y83421000D02*
X64107000Y83935000D01*
X64067000Y80881000D02*
X64067000Y81341000D01*
X64067000Y83421000D02*
X64067000Y83881000D01*
X64027000Y80938000D02*
X64027000Y81341000D01*
X64027000Y83421000D02*
X64027000Y83824000D01*
X63987000Y80998000D02*
X63987000Y81341000D01*
X63987000Y83421000D02*
X63987000Y83764000D01*
X63947000Y81062000D02*
X63947000Y81341000D01*
X63947000Y83421000D02*
X63947000Y83700000D01*
X63907000Y81130000D02*
X63907000Y81341000D01*
X63907000Y83421000D02*
X63907000Y83632000D01*
X63867000Y81203000D02*
X63867000Y83559000D01*
X63827000Y81283000D02*
X63827000Y83479000D01*
X63787000Y81370000D02*
X63787000Y83392000D01*
X63747000Y81466000D02*
X63747000Y83296000D01*
X63707000Y81576000D02*
X63707000Y83186000D01*
X63667000Y81704000D02*
X63667000Y83058000D01*
X63627000Y81863000D02*
X63627000Y82899000D01*
X63587000Y82097000D02*
X63587000Y82665000D01*
X68992775Y80906000D02*
X68492775Y80906000D01*
X68742775Y80656000D02*
X68742775Y81156000D01*
X39423000Y78274000D02*
X39423000Y82514000D01*
X42163000Y78274000D02*
X42163000Y82514000D01*
X39423000Y78274000D02*
X40128000Y78274000D01*
X41458000Y78274000D02*
X42163000Y78274000D01*
X39423000Y82514000D02*
X40128000Y82514000D01*
X41458000Y82514000D02*
X42163000Y82514000D01*
X51490000Y32180000D02*
X27790000Y32180000D01*
X51490000Y380000D02*
X51490000Y32180000D01*
X27790000Y380000D02*
X51490000Y380000D01*
X27790000Y32180000D02*
X27790000Y380000D01*
X51140000Y31810000D02*
X51140000Y30480000D01*
X49810000Y31810000D02*
X51140000Y31810000D01*
X48540000Y31810000D02*
X48540000Y29150000D01*
X48540000Y29150000D02*
X28160000Y29150000D01*
X48540000Y31810000D02*
X28160000Y31810000D01*
X28160000Y31810000D02*
X28160000Y29150000D01*
X8509000Y5481000D02*
X26543000Y5481000D01*
X8509000Y38755000D02*
X8509000Y5481000D01*
X23876000Y10688000D02*
X23876000Y38755000D01*
X23876000Y10688000D02*
X26543000Y10688000D01*
X26543000Y38755000D02*
X8506000Y38755000D01*
X11176000Y8148000D02*
X11176000Y38755000D01*
X11176000Y8148000D02*
X8506000Y8148000D01*
X26543000Y5481000D02*
X26543000Y8148000D01*
X26543000Y10688000D02*
X26543000Y38755000D01*
X23876000Y8148000D02*
X26543000Y8148000D01*
X23876000Y10688000D02*
X23876000Y8148000D01*
X47330000Y39430000D02*
X47330000Y38100000D01*
X46000000Y39430000D02*
X47330000Y39430000D01*
X44730000Y39430000D02*
X44730000Y36770000D01*
X44730000Y36770000D02*
X31970000Y36770000D01*
X44730000Y39430000D02*
X31970000Y39430000D01*
X31970000Y39430000D02*
X31970000Y36770000D01*
X57802000Y11751000D02*
X63262000Y11751000D01*
X57802000Y47431000D02*
X57802000Y11751000D01*
X70722000Y47431000D02*
X57802000Y47431000D01*
X70722000Y11751000D02*
X70722000Y47431000D01*
X65262000Y11751000D02*
X70722000Y11751000D01*
X63262000Y11751000D02*
G75*
G02*
X65262000Y11751000I1000000J0D01*
G01*
X10952000Y82491000D02*
X11657000Y82491000D01*
X8917000Y82491000D02*
X9622000Y82491000D01*
X10952000Y78251000D02*
X11657000Y78251000D01*
X8917000Y78251000D02*
X9622000Y78251000D01*
X11657000Y78251000D02*
X11657000Y82491000D01*
X8917000Y78251000D02*
X8917000Y82491000D01*
X12513000Y79264000D02*
X12513000Y78014000D01*
X12513000Y78014000D02*
X32953000Y78014000D01*
X32953000Y78014000D02*
X32953000Y82514000D01*
X32953000Y82514000D02*
X12513000Y82514000D01*
X12513000Y82514000D02*
X12513000Y81264000D01*
X12513000Y81264000D02*
G75*
G02*
X12513000Y79264000I0J-1000000D01*
G01*
X42993000Y79264000D02*
X42993000Y78014000D01*
X42993000Y78014000D02*
X60893000Y78014000D01*
X60893000Y78014000D02*
X60893000Y82514000D01*
X60893000Y82514000D02*
X42993000Y82514000D01*
X42993000Y82514000D02*
X42993000Y81264000D01*
X42993000Y81264000D02*
G75*
G02*
X42993000Y79264000I0J-1000000D01*
G01*
X16235000Y45621000D02*
X16235000Y43381000D01*
X16475000Y45621000D02*
X16475000Y43381000D01*
X16355000Y45621000D02*
X16355000Y43381000D01*
X20525000Y44501000D02*
X19875000Y44501000D01*
X14985000Y44501000D02*
X15635000Y44501000D01*
X19875000Y45621000D02*
X15635000Y45621000D01*
X19875000Y43381000D02*
X19875000Y45621000D01*
X15635000Y43381000D02*
X19875000Y43381000D01*
X15635000Y45621000D02*
X15635000Y43381000D01*
D10*
X63730142Y66128334D02*
X63777761Y66080715D01*
X63825380Y65937858D01*
X63825380Y65842620D01*
X63777761Y65699762D01*
X63682523Y65604524D01*
X63587285Y65556905D01*
X63396809Y65509286D01*
X63253952Y65509286D01*
X63063476Y65556905D01*
X62968238Y65604524D01*
X62873000Y65699762D01*
X62825380Y65842620D01*
X62825380Y65937858D01*
X62873000Y66080715D01*
X62920619Y66128334D01*
X63158714Y66985477D02*
X63825380Y66985477D01*
X62777761Y66747381D02*
X63492047Y66509286D01*
X63492047Y67128334D01*
X45045380Y62358096D02*
X45854904Y62358096D01*
X45950142Y62405715D01*
X45997761Y62453334D01*
X46045380Y62548572D01*
X46045380Y62739048D01*
X45997761Y62834286D01*
X45950142Y62881905D01*
X45854904Y62929524D01*
X45045380Y62929524D01*
X45378714Y63834286D02*
X46045380Y63834286D01*
X44997761Y63596191D02*
X45712047Y63358096D01*
X45712047Y63977143D01*
X68035333Y6999858D02*
X67987714Y6952239D01*
X67844857Y6904620D01*
X67749619Y6904620D01*
X67606761Y6952239D01*
X67511523Y7047477D01*
X67463904Y7142715D01*
X67416285Y7333191D01*
X67416285Y7476048D01*
X67463904Y7666524D01*
X67511523Y7761762D01*
X67606761Y7857000D01*
X67749619Y7904620D01*
X67844857Y7904620D01*
X67987714Y7857000D01*
X68035333Y7809381D01*
X68368666Y7904620D02*
X68987714Y7904620D01*
X68654380Y7523667D01*
X68797238Y7523667D01*
X68892476Y7476048D01*
X68940095Y7428429D01*
X68987714Y7333191D01*
X68987714Y7095096D01*
X68940095Y6999858D01*
X68892476Y6952239D01*
X68797238Y6904620D01*
X68511523Y6904620D01*
X68416285Y6952239D01*
X68368666Y6999858D01*
X66141333Y77753858D02*
X66093714Y77706239D01*
X65950857Y77658620D01*
X65855619Y77658620D01*
X65712761Y77706239D01*
X65617523Y77801477D01*
X65569904Y77896715D01*
X65522285Y78087191D01*
X65522285Y78230048D01*
X65569904Y78420524D01*
X65617523Y78515762D01*
X65712761Y78611000D01*
X65855619Y78658620D01*
X65950857Y78658620D01*
X66093714Y78611000D01*
X66141333Y78563381D01*
X67046095Y78658620D02*
X66569904Y78658620D01*
X66522285Y78182429D01*
X66569904Y78230048D01*
X66665142Y78277667D01*
X66903238Y78277667D01*
X66998476Y78230048D01*
X67046095Y78182429D01*
X67093714Y78087191D01*
X67093714Y77849096D01*
X67046095Y77753858D01*
X66998476Y77706239D01*
X66903238Y77658620D01*
X66665142Y77658620D01*
X66569904Y77706239D01*
X66522285Y77753858D01*
X41251142Y76541334D02*
X41298761Y76493715D01*
X41346380Y76350858D01*
X41346380Y76255620D01*
X41298761Y76112762D01*
X41203523Y76017524D01*
X41108285Y75969905D01*
X40917809Y75922286D01*
X40774952Y75922286D01*
X40584476Y75969905D01*
X40489238Y76017524D01*
X40394000Y76112762D01*
X40346380Y76255620D01*
X40346380Y76350858D01*
X40394000Y76493715D01*
X40441619Y76541334D01*
X41346380Y77493715D02*
X41346380Y76922286D01*
X41346380Y77208000D02*
X40346380Y77208000D01*
X40489238Y77112762D01*
X40584476Y77017524D01*
X40632095Y76922286D01*
X39166666Y14517620D02*
X39166666Y13803334D01*
X39119047Y13660477D01*
X39023809Y13565239D01*
X38880952Y13517620D01*
X38785714Y13517620D01*
X39595238Y14422381D02*
X39642857Y14470000D01*
X39738095Y14517620D01*
X39976190Y14517620D01*
X40071428Y14470000D01*
X40119047Y14422381D01*
X40166666Y14327143D01*
X40166666Y14231905D01*
X40119047Y14089048D01*
X39547619Y13517620D01*
X40166666Y13517620D01*
X32238095Y18833334D02*
X32714285Y18833334D01*
X32142857Y18547620D02*
X32476190Y19547620D01*
X32809523Y18547620D01*
X33142857Y19071429D02*
X33476190Y19071429D01*
X33619047Y18547620D02*
X33142857Y18547620D01*
X33142857Y19547620D01*
X33619047Y19547620D01*
X34047619Y18928572D02*
X34809523Y18928572D01*
X35285714Y18547620D02*
X35285714Y19214286D01*
X35285714Y19119048D02*
X35333333Y19166667D01*
X35428571Y19214286D01*
X35571428Y19214286D01*
X35666666Y19166667D01*
X35714285Y19071429D01*
X35714285Y18547620D01*
X35714285Y19071429D02*
X35761904Y19166667D01*
X35857142Y19214286D01*
X36000000Y19214286D01*
X36095238Y19166667D01*
X36142857Y19071429D01*
X36142857Y18547620D01*
X36619047Y18547620D02*
X36619047Y19214286D01*
X36619047Y19547620D02*
X36571428Y19500000D01*
X36619047Y19452381D01*
X36666666Y19500000D01*
X36619047Y19547620D01*
X36619047Y19452381D01*
X37523809Y18595239D02*
X37428571Y18547620D01*
X37238095Y18547620D01*
X37142857Y18595239D01*
X37095238Y18642858D01*
X37047619Y18738096D01*
X37047619Y19023810D01*
X37095238Y19119048D01*
X37142857Y19166667D01*
X37238095Y19214286D01*
X37428571Y19214286D01*
X37523809Y19166667D01*
X37952380Y18547620D02*
X37952380Y19214286D01*
X37952380Y19023810D02*
X38000000Y19119048D01*
X38047619Y19166667D01*
X38142857Y19214286D01*
X38238095Y19214286D01*
X38714285Y18547620D02*
X38619047Y18595239D01*
X38571428Y18642858D01*
X38523809Y18738096D01*
X38523809Y19023810D01*
X38571428Y19119048D01*
X38619047Y19166667D01*
X38714285Y19214286D01*
X38857142Y19214286D01*
X38952380Y19166667D01*
X39000000Y19119048D01*
X39047619Y19023810D01*
X39047619Y18738096D01*
X39000000Y18642858D01*
X38952380Y18595239D01*
X38857142Y18547620D01*
X38714285Y18547620D01*
X39428571Y18595239D02*
X39571428Y18547620D01*
X39809523Y18547620D01*
X39904761Y18595239D01*
X39952380Y18642858D01*
X40000000Y18738096D01*
X40000000Y18833334D01*
X39952380Y18928572D01*
X39904761Y18976191D01*
X39809523Y19023810D01*
X39619047Y19071429D01*
X39523809Y19119048D01*
X39476190Y19166667D01*
X39428571Y19261905D01*
X39428571Y19357143D01*
X39476190Y19452381D01*
X39523809Y19500000D01*
X39619047Y19547620D01*
X39857142Y19547620D01*
X40000000Y19500000D01*
X40428571Y18547620D02*
X40428571Y19547620D01*
X40666666Y19547620D01*
X40809523Y19500000D01*
X40904761Y19404762D01*
X40952380Y19309524D01*
X41000000Y19119048D01*
X41000000Y18976191D01*
X40952380Y18785715D01*
X40904761Y18690477D01*
X40809523Y18595239D01*
X40666666Y18547620D01*
X40428571Y18547620D01*
X41428571Y18928572D02*
X42190476Y18928572D01*
X43142857Y18547620D02*
X42666666Y18547620D01*
X42666666Y19547620D01*
X43952380Y18547620D02*
X43476190Y18547620D01*
X43476190Y19547620D01*
X44857142Y18642858D02*
X44809523Y18595239D01*
X44666666Y18547620D01*
X44571428Y18547620D01*
X44428571Y18595239D01*
X44333333Y18690477D01*
X44285714Y18785715D01*
X44238095Y18976191D01*
X44238095Y19119048D01*
X44285714Y19309524D01*
X44333333Y19404762D01*
X44428571Y19500000D01*
X44571428Y19547620D01*
X44666666Y19547620D01*
X44809523Y19500000D01*
X44857142Y19452381D01*
X45285714Y18547620D02*
X45285714Y19547620D01*
X45857142Y18547620D01*
X45857142Y19547620D01*
X46190476Y19547620D02*
X46523809Y18547620D01*
X46857142Y19547620D01*
X16764095Y14047120D02*
X16764095Y13237596D01*
X16811714Y13142358D01*
X16859333Y13094739D01*
X16954571Y13047120D01*
X17145047Y13047120D01*
X17240285Y13094739D01*
X17287904Y13142358D01*
X17335523Y13237596D01*
X17335523Y14047120D01*
X18287904Y14047120D02*
X17811714Y14047120D01*
X17764095Y13570929D01*
X17811714Y13618548D01*
X17906952Y13666167D01*
X18145047Y13666167D01*
X18240285Y13618548D01*
X18287904Y13570929D01*
X18335523Y13475691D01*
X18335523Y13237596D01*
X18287904Y13142358D01*
X18240285Y13094739D01*
X18145047Y13047120D01*
X17906952Y13047120D01*
X17811714Y13094739D01*
X17764095Y13142358D01*
X47782380Y37766667D02*
X48496666Y37766667D01*
X48639523Y37719048D01*
X48734761Y37623810D01*
X48782380Y37480953D01*
X48782380Y37385715D01*
X47782380Y38147620D02*
X47782380Y38766667D01*
X48163333Y38433334D01*
X48163333Y38576191D01*
X48210952Y38671429D01*
X48258571Y38719048D01*
X48353809Y38766667D01*
X48591904Y38766667D01*
X48687142Y38719048D01*
X48734761Y38671429D01*
X48782380Y38576191D01*
X48782380Y38290477D01*
X48734761Y38195239D01*
X48687142Y38147620D01*
X63500095Y11298620D02*
X63500095Y10489096D01*
X63547714Y10393858D01*
X63595333Y10346239D01*
X63690571Y10298620D01*
X63881047Y10298620D01*
X63976285Y10346239D01*
X64023904Y10393858D01*
X64071523Y10489096D01*
X64071523Y11298620D01*
X64452476Y11298620D02*
X65071523Y11298620D01*
X64738190Y10917667D01*
X64881047Y10917667D01*
X64976285Y10870048D01*
X65023904Y10822429D01*
X65071523Y10727191D01*
X65071523Y10489096D01*
X65023904Y10393858D01*
X64976285Y10346239D01*
X64881047Y10298620D01*
X64595333Y10298620D01*
X64500095Y10346239D01*
X64452476Y10393858D01*
X10771142Y76668334D02*
X10818761Y76620715D01*
X10866380Y76477858D01*
X10866380Y76382620D01*
X10818761Y76239762D01*
X10723523Y76144524D01*
X10628285Y76096905D01*
X10437809Y76049286D01*
X10294952Y76049286D01*
X10104476Y76096905D01*
X10009238Y76144524D01*
X9914000Y76239762D01*
X9866380Y76382620D01*
X9866380Y76477858D01*
X9914000Y76620715D01*
X9961619Y76668334D01*
X9961619Y77049286D02*
X9914000Y77096905D01*
X9866380Y77192143D01*
X9866380Y77430239D01*
X9914000Y77525477D01*
X9961619Y77573096D01*
X10056857Y77620715D01*
X10152095Y77620715D01*
X10294952Y77573096D01*
X10866380Y77001667D01*
X10866380Y77620715D01*
X70166666Y88047620D02*
X70166666Y87333334D01*
X70119047Y87190477D01*
X70023809Y87095239D01*
X69880952Y87047620D01*
X69785714Y87047620D01*
X71166666Y87047620D02*
X70595238Y87047620D01*
X70880952Y87047620D02*
X70880952Y88047620D01*
X70785714Y87904762D01*
X70690476Y87809524D01*
X70595238Y87761905D01*
X17613380Y79502096D02*
X18422904Y79502096D01*
X18518142Y79549715D01*
X18565761Y79597334D01*
X18613380Y79692572D01*
X18613380Y79883048D01*
X18565761Y79978286D01*
X18518142Y80025905D01*
X18422904Y80073524D01*
X17613380Y80073524D01*
X17708619Y80502096D02*
X17661000Y80549715D01*
X17613380Y80644953D01*
X17613380Y80883048D01*
X17661000Y80978286D01*
X17708619Y81025905D01*
X17803857Y81073524D01*
X17899095Y81073524D01*
X18041952Y81025905D01*
X18613380Y80454477D01*
X18613380Y81073524D01*
X41445380Y79502096D02*
X42254904Y79502096D01*
X42350142Y79549715D01*
X42397761Y79597334D01*
X42445380Y79692572D01*
X42445380Y79883048D01*
X42397761Y79978286D01*
X42350142Y80025905D01*
X42254904Y80073524D01*
X41445380Y80073524D01*
X42445380Y81073524D02*
X42445380Y80502096D01*
X42445380Y80787810D02*
X41445380Y80787810D01*
X41588238Y80692572D01*
X41683476Y80597334D01*
X41731095Y80502096D01*
X13261904Y42047620D02*
X13261904Y43047620D01*
X13500000Y43047620D01*
X13642857Y43000000D01*
X13738095Y42904762D01*
X13785714Y42809524D01*
X13833333Y42619048D01*
X13833333Y42476191D01*
X13785714Y42285715D01*
X13738095Y42190477D01*
X13642857Y42095239D01*
X13500000Y42047620D01*
X13261904Y42047620D01*
X14785714Y42047620D02*
X14214285Y42047620D01*
X14500000Y42047620D02*
X14500000Y43047620D01*
X14404761Y42904762D01*
X14309523Y42809524D01*
X14214285Y42761905D01*
X11738095Y44047620D02*
X11738095Y45047620D01*
X12309523Y44047620D02*
X11880952Y44619048D01*
X12309523Y45047620D02*
X11738095Y44476191D01*
M02*
