M48
; DRILL file {KiCad (5.1.9)-1} date 05/17/23 23:02:04
; FORMAT={-:-/ absolute / metric / decimal}
; #@! TF.CreationDate,2023-05-17T23:02:04+09:00
; #@! TF.GenerationSoftware,Kicad,Pcbnew,(5.1.9)-1
FMAT,2
METRIC
T1C0.300
T2C0.800
T3C1.000
T4C3.200
%
G90
G05
T1
X13.952Y47.452
X20.193Y78.663
X20.193Y68.736
X22.567Y88.632
X25.332Y86.298
X27.117Y28.468
X27.277Y82.306
X27.963Y72.227
X30.792Y51.807
X32.723Y88.03
X32.893Y53.349
X35.128Y88.726
X35.517Y79.988
X35.693Y67.653
X36.132Y74.747
X36.698Y78.546
X37.89Y88.453
X38.636Y75.989
X38.774Y72.29
X38.805Y64.567
X39.1Y88.752
X40.653Y89.152
X40.7Y85.172
X40.937Y74.399
X41.813Y74.437
X41.893Y76.192
X43.072Y62.081
X43.216Y67.346
X44.045Y59.73
X45.002Y58.776
X46.454Y59.45
X47.446Y57.856
X48.234Y73.24
X48.836Y88.29
X48.921Y50.872
X49.902Y50.695
X50.399Y73.741
X50.648Y88.302
X51.343Y51.334
X53.112Y73.61
X53.906Y50.933
X55.308Y73.55
X56.191Y73.406
X56.368Y88.067
X56.61Y82.197
X58.06Y79.946
X58.388Y81.637
X60.769Y77.965
X61.538Y62.539
X70.198Y42.424
T2
X9.906Y37.358
X9.906Y34.818
X9.906Y32.278
X9.906Y29.738
X9.906Y27.198
X9.906Y24.658
X9.906Y22.118
X9.906Y19.578
X9.906Y17.038
X9.906Y14.498
X9.906Y11.958
X9.906Y9.418
X10.287Y81.621
X10.287Y79.121
X11.303Y69.47
X11.303Y54.23
X12.446Y31.008
X12.446Y28.468
X12.446Y20.848
X12.446Y18.308
X13.843Y84.074
X13.843Y76.454
X13.843Y69.47
X13.843Y54.23
X13.945Y44.501
X16.383Y84.074
X16.383Y76.454
X16.383Y69.47
X16.383Y54.23
X18.923Y84.074
X18.923Y76.454
X18.923Y69.47
X18.923Y54.23
X21.463Y84.074
X21.463Y76.454
X21.463Y69.47
X21.463Y54.23
X21.565Y44.501
X24.003Y84.074
X24.003Y76.454
X24.003Y69.47
X24.003Y54.23
X25.146Y37.358
X25.146Y34.818
X25.146Y32.278
X25.146Y29.738
X25.146Y27.198
X25.146Y24.658
X25.146Y22.118
X25.146Y19.578
X25.146Y17.038
X25.146Y14.498
X25.146Y11.958
X25.146Y9.418
X26.543Y84.074
X26.543Y76.454
X26.543Y69.47
X26.543Y54.23
X29.083Y84.074
X29.083Y76.454
X29.083Y69.47
X29.083Y54.23
X31.623Y84.074
X31.623Y76.454
X31.623Y69.47
X31.623Y54.23
X34.163Y69.47
X34.163Y54.23
X36.703Y69.47
X36.703Y54.23
X39.243Y69.47
X39.243Y54.23
X40.793Y81.644
X40.793Y79.144
X41.783Y69.47
X41.783Y54.23
X44.323Y84.074
X44.323Y76.454
X44.323Y69.47
X44.323Y54.23
X46.863Y84.074
X46.863Y76.454
X46.863Y69.47
X46.863Y54.23
X49.403Y84.074
X49.403Y76.454
X49.403Y69.47
X49.403Y54.23
X51.943Y84.074
X51.943Y76.454
X51.943Y69.47
X51.943Y54.23
X54.483Y84.074
X54.483Y76.454
X54.483Y69.47
X54.483Y54.23
X56.642Y46.101
X56.642Y43.561
X56.642Y41.021
X56.642Y38.481
X56.642Y35.941
X56.642Y33.401
X56.642Y30.861
X56.642Y28.321
X56.642Y25.781
X56.642Y23.241
X56.642Y20.701
X56.642Y18.161
X56.642Y15.621
X56.642Y13.081
X57.023Y84.074
X57.023Y76.454
X57.023Y69.47
X57.023Y54.23
X59.563Y84.074
X59.563Y76.454
X59.563Y69.47
X59.563Y54.23
X62.712Y6.722
X63.373Y63.755
X63.373Y61.255
X64.938Y82.381
X65.212Y6.722
X67.438Y82.381
X71.882Y46.101
X71.882Y43.561
X71.882Y41.021
X71.882Y38.481
X71.882Y35.941
X71.882Y33.401
X71.882Y30.861
X71.882Y28.321
X71.882Y25.781
X71.882Y23.241
X71.882Y20.701
X71.882Y18.161
X71.882Y15.621
X71.882Y13.081
T3
X29.49Y30.48
X29.49Y5.08
X29.49Y2.54
X32.03Y30.48
X33.3Y38.1
X34.57Y30.48
X35.84Y38.1
X37.11Y30.48
X38.38Y38.1
X39.65Y30.48
X40.92Y38.1
X42.19Y30.48
X43.46Y38.1
X44.73Y30.48
X46.0Y38.1
X47.27Y30.48
X49.81Y30.48
X49.81Y5.08
X49.81Y2.54
T4
X5.0Y83.0
X5.0Y5.0
X74.0Y83.0
X74.0Y5.0
T0
M30
